<?xml version="1.0" standalone="no"?>
<!DOCTYPE svg PUBLIC "-//W3C//DTD SVG 20010904//EN"
 "http://www.w3.org/TR/2001/REC-SVG-20010904/DTD/svg10.dtd">
<svg version="1.0" xmlns="http://www.w3.org/2000/svg"
 width="100.000000pt" height="32.000000pt" viewBox="0 0 100.000000 32.000000"
 preserveAspectRatio="xMidYMid meet">

<g transform="translate(0.000000,32.000000) scale(0.100000,-0.100000)"
fill="#000000" stroke="none">
<path d="M88 300 c-107 -57 -115 -201 -16 -272 l33 -23 382 -3 c366 -3 384 -2
422 17 109 56 119 201 19 273 l-33 23 -385 2 c-365 2 -387 1 -422 -17z m206
-133 c19 -50 20 -57 6 -57 -5 0 -10 7 -10 15 0 20 -39 20 -46 0 -4 -8 -10 -15
-15 -15 -5 0 -4 11 1 25 6 14 14 36 20 50 14 36 25 31 44 -18z m53 -7 c3 0 12
8 19 17 7 10 16 15 20 11 4 -4 1 -14 -5 -22 -9 -11 -10 -20 -1 -35 13 -25 -2
-28 -21 -5 -12 14 -14 14 -20 -3 -5 -11 -7 -2 -7 27 0 25 2 37 5 28 2 -10 7
-18 10 -18z m92 14 c19 23 34 20 19 -4 -10 -16 -10 -24 0 -40 15 -24 5 -26
-20 -3 -17 15 -18 15 -18 0 0 -10 -4 -17 -10 -17 -11 0 -14 63 -3 74 4 4 10 0
13 -9 5 -16 7 -16 19 -1z m99 -27 c3 -35 2 -37 -27 -37 -41 0 -43 32 -3 47
l27 11 -30 1 c-23 1 -27 3 -15 11 28 18 45 7 48 -33z m61 17 c17 42 25 24 11
-21 -14 -43 -28 -63 -42 -63 -6 0 -6 6 1 14 8 10 8 21 1 40 -15 40 -11 67 5
31 l13 -30 11 29z m71 -4 c10 0 21 8 23 18 3 9 5 -3 5 -28 0 -25 -2 -37 -5
-27 -6 22 -40 22 -46 0 -3 -10 -5 2 -5 27 0 25 2 37 5 28 2 -10 13 -18 23 -18z
m100 20 c0 -5 -4 -10 -10 -10 -5 0 -11 -15 -12 -32 l-1 -33 -4 33 c-3 19 -10
32 -19 32 -8 0 -14 5 -14 10 0 6 14 10 30 10 17 0 30 -4 30 -10z"/>
<path d="M256 165 c-3 -9 0 -15 9 -15 16 0 20 16 6 24 -5 3 -11 -1 -15 -9z"/>
<path d="M498 128 c9 -9 15 -9 24 0 9 9 7 12 -12 12 -19 0 -21 -3 -12 -12z"/>
</g>
</svg>
