<?xml version="1.0" standalone="no"?>
<!DOCTYPE svg PUBLIC "-//W3C//DTD SVG 20010904//EN"
 "http://www.w3.org/TR/2001/REC-SVG-20010904/DTD/svg10.dtd">
<svg version="1.0" xmlns="http://www.w3.org/2000/svg"
 width="72.000000pt" height="21.000000pt" viewBox="0 0 72.000000 21.000000"
 preserveAspectRatio="xMidYMid meet">

<g transform="translate(0.000000,21.000000) scale(0.100000,-0.100000)"
fill="#000000" stroke="none">
<path d="M65 201 c-65 -28 -82 -118 -32 -168 l27 -28 300 0 300 0 27 28 c40
39 40 105 0 144 l-27 28 -288 2 c-158 1 -296 -2 -307 -6z m100 -71 c4 -7 -2
-9 -18 -5 -28 7 -40 -5 -31 -30 4 -10 14 -15 25 -12 11 3 19 1 19 -4 0 -14
-36 -10 -50 6 -18 21 -3 55 25 55 13 0 27 -5 30 -10z m54 -14 c15 -18 3 -46
-20 -46 -13 0 -19 7 -19 23 0 37 18 48 39 23z m121 -23 c0 -7 -8 -17 -17 -20
-10 -4 -21 -11 -25 -17 -4 -6 -8 6 -8 26 0 20 6 38 13 41 15 6 37 -11 37 -30z
m48 4 c3 -22 -1 -27 -17 -27 -12 0 -21 7 -21 15 0 8 7 15 15 15 8 0 15 4 15
10 0 5 -7 6 -17 3 -11 -4 -14 -3 -9 6 12 19 31 7 34 -22z m62 1 c0 -25 -3 -29
-10 -18 -9 13 -11 13 -20 0 -7 -12 -10 -8 -9 15 0 17 3 24 6 18 7 -18 23 -16
23 2 0 8 2 15 5 15 3 0 5 -15 5 -32z m59 0 c0 -31 -1 -31 -10 -10 -5 13 -7 28
-3 33 10 16 14 9 13 -23z m43 20 c-9 -9 -15 -9 -24 0 -9 9 -7 12 12 12 19 0
21 -3 12 -12z m-284 -10 c-4 -12 -22 -12 -26 0 -1 5 4 9 13 9 9 0 14 -4 13 -9z
m214 -12 c6 4 9 1 6 -6 -9 -27 -28 -22 -27 7 1 17 3 21 6 10 2 -9 9 -14 15
-11z m135 -10 c-2 -6 -13 -12 -25 -14 -18 -3 -22 2 -22 22 0 24 2 25 25 14 14
-6 24 -16 22 -22z m-367 -6 c0 -5 -5 -10 -11 -10 -5 0 -7 5 -4 10 3 6 8 10 11
10 2 0 4 -4 4 -10z m25 0 c3 -5 1 -10 -4 -10 -6 0 -11 5 -11 10 0 6 2 10 4 10
3 0 8 -4 11 -10z"/>
<path d="M190 100 c0 -19 11 -26 23 -14 8 8 -3 34 -14 34 -5 0 -9 -9 -9 -20z"/>
<path d="M306 113 c-12 -12 -6 -33 9 -33 8 0 15 6 15 14 0 17 -14 28 -24 19z"/>
<path d="M585 90 c-3 -5 1 -10 10 -10 9 0 13 5 10 10 -3 6 -8 10 -10 10 -2 0
-7 -4 -10 -10z"/>
</g>
</svg>
