<?xml version="1.0" standalone="no"?>
<!DOCTYPE svg PUBLIC "-//W3C//DTD SVG 20010904//EN"
 "http://www.w3.org/TR/2001/REC-SVG-20010904/DTD/svg10.dtd">
<svg version="1.0" xmlns="http://www.w3.org/2000/svg"
 width="21.000000pt" height="21.000000pt" viewBox="0 0 21.000000 21.000000"
 preserveAspectRatio="xMidYMid meet">

<g transform="translate(0.000000,21.000000) scale(0.100000,-0.100000)"
fill="#000000" stroke="none">
<path d="M54 191 c-59 -36 -68 -108 -19 -156 31 -32 68 -40 106 -24 33 13 69
61 69 92 0 31 -29 76 -60 92 -38 20 -58 19 -96 -4z m76 -86 c-27 -29 -42 -31
-61 -9 -12 15 -11 16 7 10 12 -3 28 0 40 9 31 23 40 17 14 -10z"/>
</g>
</svg>
